<svg width="15" height="13" viewBox="0 0 15 13" fill="none" xmlns="http://www.w3.org/2000/svg">
<path d="M9.99609 0.700195H9.99805C10.4917 0.699108 10.9809 0.795599 11.4365 0.983398H11.4375C11.8216 1.14115 12.1759 1.36138 12.4854 1.63477L12.6152 1.75586C12.9523 2.08295 13.2223 2.47177 13.4092 2.90039V2.90137C13.6029 3.34803 13.7016 3.82037 13.7002 4.30664V4.30859C13.7002 4.76268 13.6063 5.25173 13.4082 5.76562V5.7666C13.2442 6.19522 12.9991 6.65388 12.6777 7.12988C12.1695 7.88165 11.4581 8.68424 10.5537 9.5127C9.42533 10.5455 8.30447 11.3394 7.79297 11.6855L7.50684 11.875L7.19922 12.0693L6.89355 11.875L6.88184 11.8682L6.80957 11.8213C6.76165 11.79 6.69359 11.745 6.6084 11.6875C6.43781 11.5723 6.19855 11.407 5.91406 11.1992C5.34394 10.7828 4.5957 10.2 3.84668 9.51367V9.5127L3.5166 9.2041C2.76722 8.48495 2.16652 7.78792 1.72168 7.12988C1.40124 6.6552 1.15759 6.19562 0.991211 5.76465C0.793287 5.25096 0.700217 4.76252 0.700195 4.30859C0.700195 3.82096 0.798471 3.34802 0.992188 2.90137C1.17831 2.47241 1.44773 2.08356 1.78516 1.75684L1.78613 1.75586C2.12708 1.42452 2.52388 1.16455 2.96484 0.983398H2.96582C3.4216 0.79558 3.90389 0.700224 4.40527 0.700195C5.1001 0.700195 5.7766 0.889018 6.36328 1.24414C6.5035 1.32901 6.63636 1.42159 6.76172 1.52246L7.20117 1.87598L7.63965 1.52246C7.765 1.42159 7.89788 1.32902 8.03809 1.24414C8.62475 0.889026 9.30128 0.700204 9.99609 0.700195Z" stroke="#ECECEC" stroke-width="1.4"/>
</svg>
