<svg width="1150" height="450" viewBox="0 0 1150 450" fill="none" xmlns="http://www.w3.org/2000/svg">
<g filter="url(#filter0_d_256_199)">
<rect x="20" y="20" width="1110" height="410" rx="30" fill="#101010"/>
</g>
<path d="M169.237 230L178.687 209H182.527L192.007 230H187.927L179.797 211.07H181.357L173.257 230H169.237ZM173.587 225.14L174.637 222.08H185.977L187.027 225.14H173.587ZM206.297 230L200.507 222.32L203.567 220.43L210.707 230H206.297ZM194.807 230V213.98H198.557V230H194.807ZM197.447 223.58V220.46H202.877V223.58H197.447ZM203.927 222.44L200.417 222.02L206.297 213.98H210.317L203.927 222.44ZM220.115 230.21C218.435 230.21 216.935 229.86 215.615 229.16C214.315 228.44 213.295 227.46 212.555 226.22C211.815 224.98 211.445 223.57 211.445 221.99C211.445 220.39 211.815 218.98 212.555 217.76C213.295 216.52 214.315 215.55 215.615 214.85C216.935 214.15 218.435 213.8 220.115 213.8C221.675 213.8 223.045 214.12 224.225 214.76C225.425 215.38 226.335 216.3 226.955 217.52L224.075 219.2C223.595 218.44 223.005 217.88 222.305 217.52C221.625 217.16 220.885 216.98 220.085 216.98C219.165 216.98 218.335 217.18 217.595 217.58C216.855 217.98 216.275 218.56 215.855 219.32C215.435 220.06 215.225 220.95 215.225 221.99C215.225 223.03 215.435 223.93 215.855 224.69C216.275 225.43 216.855 226 217.595 226.4C218.335 226.8 219.165 227 220.085 227C220.885 227 221.625 226.82 222.305 226.46C223.005 226.1 223.595 225.54 224.075 224.78L226.955 226.46C226.335 227.66 225.425 228.59 224.225 229.25C223.045 229.89 221.675 230.21 220.115 230.21ZM237.492 230.21C235.712 230.21 234.152 229.86 232.812 229.16C231.492 228.44 230.462 227.46 229.722 226.22C229.002 224.98 228.642 223.57 228.642 221.99C228.642 220.39 228.992 218.98 229.692 217.76C230.412 216.52 231.392 215.55 232.632 214.85C233.892 214.15 235.322 213.8 236.922 213.8C238.482 213.8 239.872 214.14 241.092 214.82C242.312 215.5 243.272 216.46 243.972 217.7C244.672 218.94 245.022 220.4 245.022 222.08C245.022 222.24 245.012 222.42 244.992 222.62C244.992 222.82 244.982 223.01 244.962 223.19H231.612V220.7H242.982L241.512 221.48C241.532 220.56 241.342 219.75 240.942 219.05C240.542 218.35 239.992 217.8 239.292 217.4C238.612 217 237.822 216.8 236.922 216.8C236.002 216.8 235.192 217 234.492 217.4C233.812 217.8 233.272 218.36 232.872 219.08C232.492 219.78 232.302 220.61 232.302 221.57V222.17C232.302 223.13 232.522 223.98 232.962 224.72C233.402 225.46 234.022 226.03 234.822 226.43C235.622 226.83 236.542 227.03 237.582 227.03C238.482 227.03 239.292 226.89 240.012 226.61C240.732 226.33 241.372 225.89 241.932 225.29L243.942 227.6C243.222 228.44 242.312 229.09 241.212 229.55C240.132 229.99 238.892 230.21 237.492 230.21ZM256.414 230.21C254.734 230.21 253.234 229.86 251.914 229.16C250.614 228.44 249.594 227.46 248.854 226.22C248.114 224.98 247.744 223.57 247.744 221.99C247.744 220.39 248.114 218.98 248.854 217.76C249.594 216.52 250.614 215.55 251.914 214.85C253.234 214.15 254.734 213.8 256.414 213.8C257.974 213.8 259.344 214.12 260.524 214.76C261.724 215.38 262.634 216.3 263.254 217.52L260.374 219.2C259.894 218.44 259.304 217.88 258.604 217.52C257.924 217.16 257.184 216.98 256.384 216.98C255.464 216.98 254.634 217.18 253.894 217.58C253.154 217.98 252.574 218.56 252.154 219.32C251.734 220.06 251.524 220.95 251.524 221.99C251.524 223.03 251.734 223.93 252.154 224.69C252.574 225.43 253.154 226 253.894 226.4C254.634 226.8 255.464 227 256.384 227C257.184 227 257.924 226.82 258.604 226.46C259.304 226.1 259.894 225.54 260.374 224.78L263.254 226.46C262.634 227.66 261.724 228.59 260.524 229.25C259.344 229.89 257.974 230.21 256.414 230.21ZM273.611 230.21C271.931 230.21 270.431 229.86 269.111 229.16C267.811 228.44 266.791 227.46 266.051 226.22C265.311 224.98 264.941 223.57 264.941 221.99C264.941 220.39 265.311 218.98 266.051 217.76C266.791 216.52 267.811 215.55 269.111 214.85C270.431 214.15 271.931 213.8 273.611 213.8C275.171 213.8 276.541 214.12 277.721 214.76C278.921 215.38 279.831 216.3 280.451 217.52L277.571 219.2C277.091 218.44 276.501 217.88 275.801 217.52C275.121 217.16 274.381 216.98 273.581 216.98C272.661 216.98 271.831 217.18 271.091 217.58C270.351 217.98 269.771 218.56 269.351 219.32C268.931 220.06 268.721 220.95 268.721 221.99C268.721 223.03 268.931 223.93 269.351 224.69C269.771 225.43 270.351 226 271.091 226.4C271.831 226.8 272.661 227 273.581 227C274.381 227 275.121 226.82 275.801 226.46C276.501 226.1 277.091 225.54 277.571 224.78L280.451 226.46C279.831 227.66 278.921 228.59 277.721 229.25C276.541 229.89 275.171 230.21 273.611 230.21ZM284.987 236.03C284.207 236.03 283.427 235.9 282.647 235.64C281.867 235.38 281.217 235.02 280.697 234.56L282.197 231.8C282.577 232.14 283.007 232.41 283.487 232.61C283.967 232.81 284.457 232.91 284.957 232.91C285.637 232.91 286.187 232.74 286.607 232.4C287.027 232.06 287.417 231.49 287.777 230.69L288.707 228.59L289.007 228.14L295.067 213.98H298.667L291.167 231.29C290.667 232.49 290.107 233.44 289.487 234.14C288.887 234.84 288.207 235.33 287.447 235.61C286.707 235.89 285.887 236.03 284.987 236.03ZM288.287 230.57L281.057 213.98H284.957L290.837 227.81L288.287 230.57ZM310.494 230V226.76L310.284 226.07V220.4C310.284 219.3 309.954 218.45 309.294 217.85C308.634 217.23 307.634 216.92 306.294 216.92C305.394 216.92 304.504 217.06 303.624 217.34C302.764 217.62 302.034 218.01 301.434 218.51L299.964 215.78C300.824 215.12 301.844 214.63 303.024 214.31C304.224 213.97 305.464 213.8 306.744 213.8C309.064 213.8 310.854 214.36 312.114 215.48C313.394 216.58 314.034 218.29 314.034 220.61V230H310.494ZM305.454 230.21C304.254 230.21 303.204 230.01 302.304 229.61C301.404 229.19 300.704 228.62 300.204 227.9C299.724 227.16 299.484 226.33 299.484 225.41C299.484 224.51 299.694 223.7 300.114 222.98C300.554 222.26 301.264 221.69 302.244 221.27C303.224 220.85 304.524 220.64 306.144 220.64H310.794V223.13H306.414C305.134 223.13 304.274 223.34 303.834 223.76C303.394 224.16 303.174 224.66 303.174 225.26C303.174 225.94 303.444 226.48 303.984 226.88C304.524 227.28 305.274 227.48 306.234 227.48C307.154 227.48 307.974 227.27 308.694 226.85C309.434 226.43 309.964 225.81 310.284 224.99L310.914 227.24C310.554 228.18 309.904 228.91 308.964 229.43C308.044 229.95 306.874 230.21 305.454 230.21ZM327.554 230.21C326.254 230.21 325.064 229.91 323.984 229.31C322.924 228.71 322.074 227.81 321.434 226.61C320.814 225.39 320.504 223.85 320.504 221.99C320.504 220.11 320.804 218.57 321.404 217.37C322.024 216.17 322.864 215.28 323.924 214.7C324.984 214.1 326.194 213.8 327.554 213.8C329.134 213.8 330.524 214.14 331.724 214.82C332.944 215.5 333.904 216.45 334.604 217.67C335.324 218.89 335.684 220.33 335.684 221.99C335.684 223.65 335.324 225.1 334.604 226.34C333.904 227.56 332.944 228.51 331.724 229.19C330.524 229.87 329.134 230.21 327.554 230.21ZM318.674 235.82V213.98H322.244V217.76L322.124 222.02L322.424 226.28V235.82H318.674ZM327.134 227C328.034 227 328.834 226.8 329.534 226.4C330.254 226 330.824 225.42 331.244 224.66C331.664 223.9 331.874 223.01 331.874 221.99C331.874 220.95 331.664 220.06 331.244 219.32C330.824 218.56 330.254 217.98 329.534 217.58C328.834 217.18 328.034 216.98 327.134 216.98C326.234 216.98 325.424 217.18 324.704 217.58C323.984 217.98 323.414 218.56 322.994 219.32C322.574 220.06 322.364 220.95 322.364 221.99C322.364 223.01 322.574 223.9 322.994 224.66C323.414 225.42 323.984 226 324.704 226.4C325.424 226.8 326.234 227 327.134 227ZM355.586 230V213.98H359.336V230H355.586ZM347.216 219.26C349.276 219.26 350.836 219.72 351.896 220.64C352.976 221.56 353.516 222.86 353.516 224.54C353.516 226.28 352.916 227.64 351.716 228.62C350.536 229.58 348.856 230.05 346.676 230.03L339.416 230V213.98H343.166V219.23L347.216 219.26ZM346.346 227.27C347.446 227.29 348.286 227.06 348.866 226.58C349.446 226.1 349.736 225.4 349.736 224.48C349.736 223.56 349.446 222.9 348.866 222.5C348.306 222.08 347.466 221.86 346.346 221.84L343.166 221.81V227.24L346.346 227.27ZM383.648 228.26V217.16H377.498L377.408 219.74C377.368 220.66 377.308 221.55 377.228 222.41C377.148 223.25 377.018 224.03 376.838 224.75C376.658 225.45 376.398 226.03 376.058 226.49C375.718 226.95 375.268 227.25 374.708 227.39L370.988 226.82C371.588 226.82 372.068 226.63 372.428 226.25C372.808 225.85 373.098 225.31 373.298 224.63C373.518 223.93 373.678 223.14 373.778 222.26C373.878 221.36 373.948 220.43 373.988 219.47L374.198 213.98H387.398V228.26H383.648ZM370.418 233.57V226.82H389.768V233.57H386.258V230H373.898V233.57H370.418ZM390.778 229.97L390.958 226.82C391.098 226.84 391.228 226.86 391.348 226.88C391.468 226.9 391.578 226.91 391.678 226.91C392.298 226.91 392.778 226.72 393.118 226.34C393.458 225.96 393.708 225.45 393.868 224.81C394.048 224.15 394.168 223.42 394.228 222.62C394.308 221.8 394.368 220.98 394.408 220.16L394.678 213.98H407.638V230H403.888V216.14L404.758 217.16H397.138L397.948 216.11L397.738 220.34C397.678 221.76 397.558 223.08 397.378 224.3C397.218 225.5 396.958 226.55 396.598 227.45C396.258 228.35 395.778 229.05 395.158 229.55C394.558 230.05 393.788 230.3 392.848 230.3C392.548 230.3 392.218 230.27 391.858 230.21C391.518 230.15 391.158 230.07 390.778 229.97ZM422.858 230V224.54L423.398 225.17H418.598C416.398 225.17 414.668 224.71 413.408 223.79C412.168 222.85 411.548 221.5 411.548 219.74C411.548 217.86 412.208 216.43 413.528 215.45C414.868 214.47 416.648 213.98 418.868 213.98H426.218V230H422.858ZM411.338 230L415.658 223.88H419.498L415.358 230H411.338ZM422.858 223.34V216.14L423.398 217.13H418.988C417.828 217.13 416.928 217.35 416.288 217.79C415.668 218.21 415.358 218.9 415.358 219.86C415.358 221.66 416.528 222.56 418.868 222.56H423.398L422.858 223.34ZM165.781 267V246H169.681V267H165.781ZM183.881 267.21C182.581 267.21 181.391 266.91 180.311 266.31C179.251 265.71 178.401 264.81 177.761 263.61C177.141 262.39 176.831 260.85 176.831 258.99C176.831 257.11 177.131 255.57 177.731 254.37C178.351 253.17 179.191 252.28 180.251 251.7C181.311 251.1 182.521 250.8 183.881 250.8C185.461 250.8 186.851 251.14 188.051 251.82C189.271 252.5 190.231 253.45 190.931 254.67C191.651 255.89 192.011 257.33 192.011 258.99C192.011 260.65 191.651 262.1 190.931 263.34C190.231 264.56 189.271 265.51 188.051 266.19C186.851 266.87 185.461 267.21 183.881 267.21ZM175.001 272.82V250.98H178.571V254.76L178.451 259.02L178.751 263.28V272.82H175.001ZM183.461 264C184.361 264 185.161 263.8 185.861 263.4C186.581 263 187.151 262.42 187.571 261.66C187.991 260.9 188.201 260.01 188.201 258.99C188.201 257.95 187.991 257.06 187.571 256.32C187.151 255.56 186.581 254.98 185.861 254.58C185.161 254.18 184.361 253.98 183.461 253.98C182.561 253.98 181.751 254.18 181.031 254.58C180.311 254.98 179.741 255.56 179.321 256.32C178.901 257.06 178.691 257.95 178.691 258.99C178.691 260.01 178.901 260.9 179.321 261.66C179.741 262.42 180.311 263 181.031 263.4C181.751 263.8 182.561 264 183.461 264ZM204.657 250.8C205.937 250.8 207.077 251.05 208.077 251.55C209.097 252.05 209.897 252.82 210.477 253.86C211.057 254.88 211.347 256.2 211.347 257.82V267H207.597V258.3C207.597 256.88 207.257 255.82 206.577 255.12C205.917 254.42 204.987 254.07 203.787 254.07C202.907 254.07 202.127 254.25 201.447 254.61C200.767 254.97 200.237 255.51 199.857 256.23C199.497 256.93 199.317 257.82 199.317 258.9V267H195.567V244.74H199.317V255.3L198.507 253.98C199.067 252.96 199.877 252.18 200.937 251.64C202.017 251.08 203.257 250.8 204.657 250.8ZM223.334 267.21C221.694 267.21 220.234 266.86 218.954 266.16C217.674 265.44 216.664 264.46 215.924 263.22C215.184 261.98 214.814 260.57 214.814 258.99C214.814 257.39 215.184 255.98 215.924 254.76C216.664 253.52 217.674 252.55 218.954 251.85C220.234 251.15 221.694 250.8 223.334 250.8C224.994 250.8 226.464 251.15 227.744 251.85C229.044 252.55 230.054 253.51 230.774 254.73C231.514 255.95 231.884 257.37 231.884 258.99C231.884 260.57 231.514 261.98 230.774 263.22C230.054 264.46 229.044 265.44 227.744 266.16C226.464 266.86 224.994 267.21 223.334 267.21ZM223.334 264C224.254 264 225.074 263.8 225.794 263.4C226.514 263 227.074 262.42 227.474 261.66C227.894 260.9 228.104 260.01 228.104 258.99C228.104 257.95 227.894 257.06 227.474 256.32C227.074 255.56 226.514 254.98 225.794 254.58C225.074 254.18 224.264 253.98 223.364 253.98C222.444 253.98 221.624 254.18 220.904 254.58C220.204 254.98 219.644 255.56 219.224 256.32C218.804 257.06 218.594 257.95 218.594 258.99C218.594 260.01 218.804 260.9 219.224 261.66C219.644 262.42 220.204 263 220.904 263.4C221.624 263.8 222.434 264 223.334 264ZM244.56 250.8C245.84 250.8 246.98 251.05 247.98 251.55C249 252.05 249.8 252.82 250.38 253.86C250.96 254.88 251.25 256.2 251.25 257.82V267H247.5V258.3C247.5 256.88 247.16 255.82 246.48 255.12C245.82 254.42 244.89 254.07 243.69 254.07C242.81 254.07 242.03 254.25 241.35 254.61C240.67 254.97 240.14 255.51 239.76 256.23C239.4 256.93 239.22 257.82 239.22 258.9V267H235.47V250.98H239.04V255.3L238.41 253.98C238.97 252.96 239.78 252.18 240.84 251.64C241.92 251.08 243.16 250.8 244.56 250.8ZM263.566 267.21C261.786 267.21 260.226 266.86 258.886 266.16C257.566 265.44 256.536 264.46 255.796 263.22C255.076 261.98 254.716 260.57 254.716 258.99C254.716 257.39 255.066 255.98 255.766 254.76C256.486 253.52 257.466 252.55 258.706 251.85C259.966 251.15 261.396 250.8 262.996 250.8C264.556 250.8 265.946 251.14 267.166 251.82C268.386 252.5 269.346 253.46 270.046 254.7C270.746 255.94 271.096 257.4 271.096 259.08C271.096 259.24 271.086 259.42 271.066 259.62C271.066 259.82 271.056 260.01 271.036 260.19H257.686V257.7H269.056L267.586 258.48C267.606 257.56 267.416 256.75 267.016 256.05C266.616 255.35 266.066 254.8 265.366 254.4C264.686 254 263.896 253.8 262.996 253.8C262.076 253.8 261.266 254 260.566 254.4C259.886 254.8 259.346 255.36 258.946 256.08C258.566 256.78 258.376 257.61 258.376 258.57V259.17C258.376 260.13 258.596 260.98 259.036 261.72C259.476 262.46 260.096 263.03 260.896 263.43C261.696 263.83 262.616 264.03 263.656 264.03C264.556 264.03 265.366 263.89 266.086 263.61C266.806 263.33 267.446 262.89 268.006 262.29L270.016 264.6C269.296 265.44 268.386 266.09 267.286 266.55C266.206 266.99 264.966 267.21 263.566 267.21ZM285.209 267V247.5L286.919 249.27H280.769V246H289.109V267H285.209ZM299.875 267.3C298.395 267.3 296.945 267.09 295.525 266.67C294.125 266.23 292.945 265.63 291.985 264.87L293.665 261.84C294.425 262.46 295.345 262.96 296.425 263.34C297.505 263.72 298.635 263.91 299.815 263.91C301.215 263.91 302.305 263.63 303.085 263.07C303.865 262.49 304.255 261.71 304.255 260.73C304.255 259.77 303.895 259.01 303.175 258.45C302.455 257.89 301.295 257.61 299.695 257.61H297.775V254.94L303.775 247.8L304.285 249.27H293.005V246H307.315V248.61L301.315 255.75L299.275 254.55H300.445C303.025 254.55 304.955 255.13 306.235 256.29C307.535 257.43 308.185 258.9 308.185 260.7C308.185 261.88 307.885 262.97 307.285 263.97C306.685 264.97 305.765 265.78 304.525 266.4C303.305 267 301.755 267.3 299.875 267.3ZM320.527 267V246H329.167C331.027 246 332.617 246.3 333.937 246.9C335.277 247.5 336.307 248.36 337.027 249.48C337.747 250.6 338.107 251.93 338.107 253.47C338.107 255.01 337.747 256.34 337.027 257.46C336.307 258.58 335.277 259.44 333.937 260.04C332.617 260.64 331.027 260.94 329.167 260.94H322.687L324.427 259.11V267H320.527ZM324.427 259.53L322.687 257.64H328.987C330.707 257.64 331.997 257.28 332.857 256.56C333.737 255.82 334.177 254.79 334.177 253.47C334.177 252.13 333.737 251.1 332.857 250.38C331.997 249.66 330.707 249.3 328.987 249.3H322.687L324.427 247.38V259.53ZM341.495 267V250.98H345.065V255.39L344.645 254.1C345.125 253.02 345.875 252.2 346.895 251.64C347.935 251.08 349.225 250.8 350.765 250.8V254.37C350.605 254.33 350.455 254.31 350.315 254.31C350.175 254.29 350.035 254.28 349.895 254.28C348.475 254.28 347.345 254.7 346.505 255.54C345.665 256.36 345.245 257.59 345.245 259.23V267H341.495ZM361 267.21C359.36 267.21 357.9 266.86 356.62 266.16C355.34 265.44 354.33 264.46 353.59 263.22C352.85 261.98 352.48 260.57 352.48 258.99C352.48 257.39 352.85 255.98 353.59 254.76C354.33 253.52 355.34 252.55 356.62 251.85C357.9 251.15 359.36 250.8 361 250.8C362.66 250.8 364.13 251.15 365.41 251.85C366.71 252.55 367.72 253.51 368.44 254.73C369.18 255.95 369.55 257.37 369.55 258.99C369.55 260.57 369.18 261.98 368.44 263.22C367.72 264.46 366.71 265.44 365.41 266.16C364.13 266.86 362.66 267.21 361 267.21ZM361 264C361.92 264 362.74 263.8 363.46 263.4C364.18 263 364.74 262.42 365.14 261.66C365.56 260.9 365.77 260.01 365.77 258.99C365.77 257.95 365.56 257.06 365.14 256.32C364.74 255.56 364.18 254.98 363.46 254.58C362.74 254.18 361.93 253.98 361.03 253.98C360.11 253.98 359.29 254.18 358.57 254.58C357.87 254.98 357.31 255.56 356.89 256.32C356.47 257.06 356.26 257.95 356.26 258.99C356.26 260.01 356.47 260.9 356.89 261.66C357.31 262.42 357.87 263 358.57 263.4C359.29 263.8 360.1 264 361 264ZM381.787 267V246H384.997L394.177 261.33H392.497L401.527 246H404.737L404.767 267H401.077L401.047 251.79H401.827L394.147 264.6H392.407L384.607 251.79H385.507V267H381.787ZM419.949 267V263.76L419.739 263.07V257.4C419.739 256.3 419.409 255.45 418.749 254.85C418.089 254.23 417.089 253.92 415.749 253.92C414.849 253.92 413.959 254.06 413.079 254.34C412.219 254.62 411.489 255.01 410.889 255.51L409.419 252.78C410.279 252.12 411.299 251.63 412.479 251.31C413.679 250.97 414.919 250.8 416.199 250.8C418.519 250.8 420.309 251.36 421.569 252.48C422.849 253.58 423.489 255.29 423.489 257.61V267H419.949ZM414.909 267.21C413.709 267.21 412.659 267.01 411.759 266.61C410.859 266.19 410.159 265.62 409.659 264.9C409.179 264.16 408.939 263.33 408.939 262.41C408.939 261.51 409.149 260.7 409.569 259.98C410.009 259.26 410.719 258.69 411.699 258.27C412.679 257.85 413.979 257.64 415.599 257.64H420.249V260.13H415.869C414.589 260.13 413.729 260.34 413.289 260.76C412.849 261.16 412.629 261.66 412.629 262.26C412.629 262.94 412.899 263.48 413.439 263.88C413.979 264.28 414.729 264.48 415.689 264.48C416.609 264.48 417.429 264.27 418.149 263.85C418.889 263.43 419.419 262.81 419.739 261.99L420.369 264.24C420.009 265.18 419.359 265.91 418.419 266.43C417.499 266.95 416.329 267.21 414.909 267.21ZM426.112 267L433.162 257.82L433.102 259.83L426.382 250.98H430.552L435.262 257.28H433.672L438.412 250.98H442.462L435.682 259.83L435.712 257.82L442.732 267H438.502L433.552 260.31L435.112 260.52L430.252 267H426.112Z" fill="white"/>
<defs>
<filter id="filter0_d_256_199" x="0" y="0" width="1150" height="450" filterUnits="userSpaceOnUse" color-interpolation-filters="sRGB">
<feFlood flood-opacity="0" result="BackgroundImageFix"/>
<feColorMatrix in="SourceAlpha" type="matrix" values="0 0 0 0 0 0 0 0 0 0 0 0 0 0 0 0 0 0 127 0" result="hardAlpha"/>
<feOffset/>
<feGaussianBlur stdDeviation="10"/>
<feComposite in2="hardAlpha" operator="out"/>
<feColorMatrix type="matrix" values="0 0 0 0 0 0 0 0 0 0 0 0 0 0 0 0 0 0 0.1 0"/>
<feBlend mode="normal" in2="BackgroundImageFix" result="effect1_dropShadow_256_199"/>
<feBlend mode="normal" in="SourceGraphic" in2="effect1_dropShadow_256_199" result="shape"/>
</filter>
</defs>
</svg>
